<?xml version="1.0" encoding="utf-8"?>
<!-- Generator: Adobe Illustrator 23.0.1, SVG Export Plug-In . SVG Version: 6.00 Build 0)  -->
<svg version="1.1" id="Layer_1" xmlns="http://www.w3.org/2000/svg" xmlns:xlink="http://www.w3.org/1999/xlink" x="0px" y="0px"
	 viewBox="0 0 240 39" style="enable-background:new 0 0 240 39;" xml:space="preserve">
<style type="text/css">
	.st0{fill:#F9F9F9;}
	.st1{fill:#F7F9F9;}
</style>
<g>
	<path class="st0" d="M26.7,0.9c-7.4,0-15.1,1.7-22.8,4c-1,0.2-1.9,0.9-2.5,1.7C0.9,7.4,0.8,8.2,0.6,9c-0.8,4.4-0.7,8.8-0.5,13.6
		c0,1.1,0.2,2.4,0.7,3.2c0.5,0.8,1.4,1.3,2.4,1.5c1.3,0.2,2.7,0.4,4,0.5L7,36.5c0,0.7,0.3,1.3,0.7,1.6c0.4,0.3,0.8,0.4,1.2,0.4
		c0.8,0.1,1.8-0.3,2.3-1.3c2.1-4.2,3.4-6.1,6-8.9c6.8,0.2,12.8-0.2,19.6-0.7c2.4-0.1,4-2.1,4.5-3.7c1.3-4.2,1.5-9.5,1.6-14.7
		c0.1-2.1-0.6-4.1-1.9-5.2c-1.2-1-2.6-1.3-3.9-1.7C33.4,1.4,29.8,0.9,26.7,0.9z M36.5,4.2c1.3,0.4,2.4,0.7,3.2,1.3
		c1.2,1.3,1.2,2.2,1.1,3.7c-0.1,5.1-0.4,10.1-1.5,13.9c-0.5,1.4-1.3,2.4-2.9,2.6c-6.9,0.5-12.8,0.9-19.8,0.7c-0.3,0-0.5,0.1-0.7,0.3
		c-2.9,3.1-4.4,5.2-6.6,9.7c-0.1,0.1-0.2,0.2-0.3,0.2c-0.1,0-0.1-0.1-0.1-0.1l0.3-9.4c0-0.5-0.4-1-0.9-1c-1.6-0.2-3.2-0.4-4.8-0.6
		c-0.7-0.1-0.9-0.3-1.1-0.6c-0.3-0.8-0.3-1.3-0.3-2.1c-0.2-4.8-0.2-8.9,0.5-13.1C2.6,8.8,2.8,8.2,3,7.7C3.4,7,4,6.9,4.6,6.8
		c7.6-2.2,15-3.8,22-3.8C30.1,3,33.7,3.4,36.5,4.2z M10.3,12.3c-1,1.3-0.9,3.1-0.1,4.3c0.4,0.6,1.1,1.1,1.9,1.2
		c1,0.1,1.7-0.4,2.4-0.9c1.3-1.2,1.4-3.2,0.4-4.7c-0.5-0.8-1.3-1.2-2.1-1.2C11.7,11,10.9,11.5,10.3,12.3L10.3,12.3z M21.6,11.2
		c-1,0-1.9,0.8-2.4,1.6c-0.6,0.9-0.9,2.1-0.5,3.2c0.9,2.2,4.1,2.2,5.3-0.1c0.6-1,0.4-2.2,0-3.1c-0.4-0.9-1.1-1.5-2-1.7
		C21.9,11.2,21.8,11.2,21.6,11.2z M30.8,11.4c-0.3,0-0.7,0-1,0.1c-1.3,0.4-2.3,1.7-2.2,3.4c0.1,0.9,0.5,1.7,1.2,2.3
		c0.7,0.6,1.7,0.8,2.7,0.6c1.2-0.3,2-1.3,2.2-2.3c0.3-1,0.2-2-0.4-2.8C32.8,11.9,31.8,11.4,30.8,11.4L30.8,11.4z M12.7,13
		c0.2,0,0.4,0.1,0.6,0.4c0.4,0.6,0.3,1.6-0.1,2c-0.4,0.4-0.7,0.4-0.9,0.4c-0.2,0-0.4-0.2-0.5-0.4c-0.3-0.5-0.4-1.3,0-1.8
		C12,13.3,12.4,13.1,12.7,13L12.7,13z M21.7,13.3c0,0,0.4,0.3,0.6,0.6c0.2,0.4,0.2,0.7,0,1.1c-0.6,1-1.7,0.7-1.9,0.3
		c-0.1-0.2,0-0.8,0.3-1.3C21.2,13.4,21.6,13.2,21.7,13.3L21.7,13.3z M31.8,14c0.1,0.1,0.2,0.6,0.1,1.1c-0.1,0.4-0.3,0.7-0.7,0.8
		c-0.6,0.1-0.9,0-1.1-0.2c-0.2-0.2-0.4-0.6-0.4-0.9c-0.1-0.9,0.2-1.1,0.7-1.3C30.9,13.3,31.6,13.6,31.8,14z"/>
	<path class="st1" d="M57.6,5c0-0.3,0.1-0.5,0.3-0.7C58.1,4.1,58.3,4,58.6,4h6.8c0.2,0,0.5,0.1,0.7,0.3c0.2,0.2,0.4,0.4,0.4,0.7
		v10.9h11.4V5c0-0.3,0.1-0.5,0.3-0.7C78.4,4.1,78.7,4,79,4h6.7c0.3,0,0.6,0.1,0.8,0.2c0.2,0.2,0.3,0.4,0.3,0.7v32.1
		c0,0.3-0.1,0.6-0.3,0.8c-0.2,0.2-0.5,0.3-0.8,0.3H79c-0.3,0-0.6-0.1-0.7-0.3c-0.2-0.2-0.3-0.4-0.3-0.8V24H66.5v13.1
		c0,0.3-0.1,0.6-0.3,0.7c-0.2,0.2-0.5,0.3-0.8,0.3h-6.8c-0.6,0-1-0.3-1-0.9C57.6,37.2,57.6,5,57.6,5z M120.5,37.7
		c-0.2,0.2-0.4,0.3-0.6,0.3c-0.2,0-0.4,0.1-0.6,0.1h-3.5c-0.3,0-0.5,0-0.7-0.2c-0.2-0.1-0.4-0.2-0.5-0.4c-0.1-0.2-0.3-0.4-0.3-0.6
		c-0.1-0.2-0.2-0.4-0.2-0.7l-0.7-2.9c-0.2,0.5-0.6,1-1,1.6c-0.5,0.6-1,1.2-1.7,1.7c-0.7,0.5-1.5,1-2.4,1.3c-0.9,0.4-2,0.5-3.2,0.5
		c-1.7,0-3.3-0.3-4.8-1c-1.4-0.7-2.6-1.6-3.6-2.8c-1-1.2-1.8-2.5-2.3-4.1c-0.6-1.6-0.8-3.2-0.8-5V10.7c0-0.6,0.1-1,0.4-1.3
		C94,9.1,94.4,8.9,95,8.9h5.3c0.7,0,1.1,0.1,1.4,0.3c0.2,0.2,0.4,0.7,0.4,1.3v15c0,0.7,0.2,1.3,0.4,1.9c0.3,0.6,0.7,1.1,1.2,1.6
		c0.5,0.5,1,0.8,1.7,1.1c0.6,0.3,1.3,0.4,1.9,0.4c0.6,0,1.1-0.1,1.7-0.4c0.6-0.3,1.1-0.6,1.6-1c0.5-0.4,0.9-1,1.2-1.5
		c0.3-0.6,0.5-1.2,0.5-1.9V10.6c0-0.3,0.1-0.5,0.2-0.8c0.1-0.3,0.2-0.5,0.4-0.6c0.2-0.1,0.4-0.2,0.6-0.3s0.4-0.1,0.6-0.1h5.2
		c0.7,0,1.1,0.2,1.4,0.5c0.3,0.3,0.4,0.8,0.4,1.3v25.7c0,0.3-0.1,0.6-0.2,0.8s-0.3,0.4-0.5,0.6C120.3,37.8,120.5,37.7,120.5,37.7z
		 M147.2,34.5c-0.4,0.4-0.9,0.9-1.4,1.3c-0.5,0.5-1,0.9-1.6,1.3c-0.6,0.4-1.2,0.8-1.9,1c-0.7,0.3-1.5,0.4-2.2,0.4
		c-2.1,0-4-0.4-5.8-1.2c-1.7-0.8-3.3-1.8-4.5-3.2c-1.3-1.4-2.3-3-3-4.8c-0.7-1.8-1.1-3.8-1.1-5.9c0-2.1,0.4-4.1,1.1-5.9
		c0.7-1.8,1.7-3.4,3-4.8c1.3-1.4,2.8-2.5,4.5-3.2c1.8-0.8,3.7-1.2,5.8-1.2c0.8,0,1.6,0.1,2.3,0.4c0.7,0.2,1.3,0.5,1.9,0.9
		c0.6,0.4,1.1,0.8,1.6,1.3c0.5,0.5,0.9,1,1.4,1.4V2c0-0.5,0.1-0.9,0.4-1.2c0.3-0.3,0.7-0.5,1.3-0.5h5.2c0.2,0,0.4,0,0.6,0.1
		c0.2,0.1,0.4,0.2,0.6,0.4c0.2,0.2,0.3,0.3,0.4,0.6c0.1,0.2,0.2,0.5,0.2,0.7v34.4c0,1.2-0.6,1.8-1.9,1.8h-4.5c-0.3,0-0.5,0-0.7-0.1
		c-0.2-0.1-0.3-0.2-0.4-0.3c-0.1-0.2-0.2-0.4-0.3-0.6c-0.1-0.3-0.2-0.5-0.3-0.8L147.2,34.5L147.2,34.5z M134,23.5
		c0,1,0.2,1.9,0.5,2.8c0.3,0.9,0.8,1.6,1.3,2.3c0.6,0.6,1.3,1.2,2.1,1.5c0.8,0.4,1.7,0.6,2.7,0.6c1,0,1.9-0.2,2.8-0.5
		c0.8-0.3,1.6-0.8,2.3-1.5c0.6-0.6,1.2-1.4,1.6-2.2c0.4-0.8,0.6-1.7,0.7-2.7v-0.3c0-1-0.2-1.9-0.6-2.8c-0.4-0.9-0.9-1.7-1.5-2.3
		c-0.7-0.7-1.4-1.2-2.3-1.6c-0.9-0.4-1.9-0.6-2.9-0.6c-1,0-1.9,0.2-2.7,0.6c-0.8,0.4-1.5,0.9-2.1,1.6c-0.6,0.7-1,1.5-1.3,2.3
		C134.1,21.6,133.9,22.6,134,23.5L134,23.5z M182.7,34.5c-0.4,0.4-0.9,0.9-1.4,1.3s-1,0.9-1.6,1.3c-0.6,0.4-1.2,0.8-1.9,1
		c-0.7,0.3-1.5,0.4-2.2,0.4c-2.1,0-4-0.4-5.8-1.2c-1.7-0.8-3.3-1.8-4.5-3.2c-1.3-1.4-2.3-3-3-4.8c-0.7-1.8-1.1-3.8-1.1-5.9
		c0-2.1,0.4-4.1,1.1-5.9s1.7-3.4,3-4.8c1.3-1.4,2.8-2.5,4.5-3.2c1.8-0.8,3.7-1.2,5.8-1.2c0.8,0,1.6,0.1,2.3,0.4
		c0.7,0.2,1.3,0.5,1.9,0.9c0.6,0.4,1.1,0.8,1.6,1.3c0.5,0.5,0.9,1,1.4,1.4V2c0-0.5,0.1-0.9,0.4-1.2c0.3-0.3,0.7-0.5,1.3-0.5h5.2
		c0.2,0,0.4,0,0.6,0.1c0.2,0.1,0.4,0.2,0.6,0.4c0.2,0.2,0.3,0.3,0.4,0.6c0.1,0.2,0.2,0.5,0.2,0.7v34.4c0,1.2-0.6,1.8-1.9,1.8h-4.5
		c-0.3,0-0.5,0-0.7-0.1c-0.2-0.1-0.3-0.2-0.4-0.3c-0.1-0.2-0.2-0.4-0.3-0.6c-0.1-0.3-0.2-0.5-0.3-0.8L182.7,34.5L182.7,34.5z
		 M169.5,23.5c0,1,0.2,1.9,0.5,2.8c0.3,0.9,0.8,1.6,1.3,2.3c0.6,0.6,1.3,1.2,2.1,1.5c0.8,0.4,1.7,0.6,2.7,0.6c1,0,1.9-0.2,2.8-0.5
		c0.8-0.3,1.6-0.8,2.3-1.5c0.6-0.6,1.2-1.4,1.6-2.2c0.4-0.8,0.6-1.7,0.7-2.7v-0.3c0-1-0.2-1.9-0.6-2.8c-0.4-0.9-0.9-1.7-1.5-2.3
		c-0.7-0.7-1.4-1.2-2.3-1.6c-0.9-0.4-1.9-0.6-2.9-0.6c-1,0-1.9,0.2-2.7,0.6c-0.8,0.4-1.5,0.9-2.1,1.6c-0.6,0.7-1,1.5-1.3,2.3
		C169.6,21.6,169.5,22.6,169.5,23.5L169.5,23.5z M197.6,2c0-0.5,0.1-0.9,0.4-1.2c0.2-0.3,0.7-0.5,1.3-0.5h5.6c0.2,0,0.3,0,0.5,0.1
		c0.2,0.1,0.3,0.2,0.5,0.4c0.1,0.2,0.3,0.3,0.4,0.6c0.1,0.2,0.1,0.5,0.1,0.7v34.3c0,0.6-0.2,1-0.5,1.3c-0.3,0.3-0.8,0.4-1.3,0.4
		h-5.3c-0.6,0-1-0.2-1.3-0.4c-0.2-0.3-0.4-0.7-0.4-1.3V2z M236.3,34.6c-1.3,1.2-2.9,2.2-4.6,2.9c-1.7,0.7-3.5,1.1-5.4,1
		c-2.1,0-4.1-0.4-6-1.2c-1.8-0.7-3.5-1.8-4.9-3.2c-1.4-1.4-2.6-3-3.4-4.8c-0.8-1.8-1.2-3.8-1.2-6c0-1.3,0.2-2.7,0.5-3.9
		c0.3-1.2,0.8-2.4,1.4-3.6c0.6-1.1,1.3-2.1,2.2-3c0.9-0.9,1.8-1.7,2.9-2.4c1.1-0.7,2.3-1.2,3.5-1.5c1.3-0.4,2.6-0.6,4-0.6
		c1.3,0,2.5,0.2,3.7,0.5c1.2,0.3,2.3,0.8,3.4,1.4c1.1,0.6,2,1.3,2.9,2.2c0.9,0.8,1.6,1.8,2.3,2.8c0.6,1,1.1,2.1,1.5,3.3
		c0.3,1.2,0.5,2.3,0.5,3.6c0,0.8,0,1.4,0,2c0,0.5-0.1,0.9-0.4,1.2c-0.2,0.3-0.6,0.5-1.1,0.6c-0.5,0.1-1.2,0.2-2.2,0.2h-16.5
		c0.2,1,0.5,1.8,0.9,2.5c0.4,0.6,1,1.2,1.6,1.6c0.6,0.4,1.3,0.7,2,0.8c0.6,0.2,1.3,0.2,2,0.3c0.6,0,1.1-0.1,1.7-0.2
		c0.6-0.1,1.1-0.3,1.7-0.5c0.5-0.2,1-0.4,1.5-0.7c0.5-0.3,0.8-0.5,1.1-0.8c0.2-0.2,0.5-0.3,0.6-0.4c0.2-0.1,0.4-0.1,0.6-0.1
		c0.2,0,0.4,0.1,0.6,0.2c0.3,0.2,0.5,0.4,0.7,0.6l2.4,2.8c0.2,0.2,0.3,0.4,0.3,0.5c0,0.2,0.1,0.3,0.1,0.5c0,0.3-0.1,0.6-0.3,0.8
		C236.7,34.3,236.5,34.5,236.3,34.6L236.3,34.6z M225.3,15.5c-0.6,0-1.2,0.1-1.7,0.4c-0.6,0.2-1.1,0.6-1.6,1
		c-0.5,0.4-0.9,0.9-1.3,1.4c-0.4,0.5-0.7,1-1,1.5h11.7c-0.3-0.6-0.7-1.1-1-1.7c-0.4-0.5-0.8-0.9-1.3-1.3c-0.5-0.4-1.1-0.7-1.7-0.9
		C226.8,15.6,226.1,15.5,225.3,15.5z"/>
</g>
</svg>
